<svg width="130" height="130" viewBox="0 0 130 130" fill="none" xmlns="http://www.w3.org/2000/svg">
<path d="M129.416 25.8971C129.182 25.6158 128.889 25.3893 128.557 25.2338C128.226 25.0783 127.864 24.9976 127.498 24.9972H24.5871L20.4121 2.04977C20.3069 1.4749 20.0036 0.955056 19.5549 0.580583C19.1062 0.20611 18.5404 0.000681862 17.9559 0H2.49995C1.83693 0 1.20105 0.263363 0.73222 0.732153C0.263388 1.20094 0 1.83676 0 2.49972C0 3.16269 0.263388 3.79851 0.73222 4.26729C1.20105 4.73608 1.83693 4.99945 2.49995 4.99945H15.8685L20.0496 27.9969L32.1807 94.727C32.7399 97.7766 34.4128 100.51 36.8743 102.395C34.2956 104.057 32.2885 106.469 31.1237 109.308C29.959 112.146 29.6926 115.272 30.3604 118.267C31.0283 121.261 32.5983 123.978 34.8587 126.052C37.1192 128.126 39.9613 129.458 43.0019 129.866C46.0426 130.275 49.1354 129.742 51.8634 128.338C54.5914 126.934 56.8234 124.728 58.2584 122.017C59.6933 119.305 60.2622 116.219 59.8884 113.174C59.5146 110.129 58.216 107.272 56.1677 104.988H93.8296C91.5396 107.548 90.1977 110.817 90.0282 114.247C89.8587 117.678 90.8719 121.062 92.8983 123.836C94.9247 126.609 97.8417 128.603 101.162 129.484C104.482 130.365 108.003 130.08 111.139 128.676C114.274 127.273 116.832 124.836 118.386 121.773C119.94 118.71 120.396 115.207 119.677 111.848C118.958 108.49 117.108 105.48 114.437 103.321C111.765 101.163 108.433 99.9863 104.998 99.989H44.4804C42.7251 99.9881 41.0256 99.3716 39.678 98.2468C38.3304 97.122 37.4201 95.5602 37.1056 93.8334L34.6056 79.9912H110.061C112.988 79.9916 115.823 78.9647 118.07 77.0895C120.318 75.2142 121.836 72.6096 122.36 69.7298L129.96 27.9469C130.025 27.5863 130.01 27.2157 129.916 26.8615C129.822 26.5073 129.652 26.1781 129.416 25.8971ZM54.999 114.987C54.999 116.965 54.4125 118.898 53.3137 120.542C52.2149 122.187 50.6532 123.468 48.8259 124.225C46.9987 124.982 44.9881 125.18 43.0483 124.794C41.1085 124.408 39.3267 123.456 37.9282 122.058C36.5297 120.659 35.5774 118.878 35.1915 116.938C34.8057 114.998 35.0037 112.988 35.7606 111.161C36.5174 109.334 37.7991 107.772 39.4436 106.674C41.088 105.575 43.0214 104.988 44.9992 104.988C47.6513 104.988 50.1948 106.042 52.0701 107.917C53.9455 109.792 54.999 112.335 54.999 114.987ZM114.998 114.987C114.998 116.965 114.411 118.898 113.313 120.542C112.214 122.187 110.652 123.468 108.825 124.225C106.998 124.982 104.987 125.18 103.047 124.794C101.107 124.408 99.3257 123.456 97.9272 122.058C96.5287 120.659 95.5763 118.878 95.1904 116.938C94.8046 114.998 95.0026 112.988 95.7595 111.161C96.5163 109.334 97.798 107.772 99.4425 106.674C101.087 105.575 103.02 104.988 104.998 104.988C107.65 104.988 110.194 106.042 112.069 107.917C113.944 109.792 114.998 112.335 114.998 114.987ZM117.442 68.8361C117.127 70.564 116.216 72.1266 114.867 73.2516C113.518 74.3765 111.817 74.9923 110.061 74.9917H33.6744L25.4933 29.9967H124.504L117.442 68.8361Z" fill="white"/>
</svg>
