<svg width="464" height="97" viewBox="0 0 464 97" fill="none" xmlns="http://www.w3.org/2000/svg">
<mask id="path-1-outside-1_615_12503" maskUnits="userSpaceOnUse" x="-3" y="-3" width="470" height="103" fill="black">
<rect fill="white" x="-3" y="-3" width="470" height="103"/>
<path d="M36.4755 25.24C43.3022 25.24 48.3368 26.904 51.5795 30.232C54.8222 33.4747 56.9555 37.6987 57.9795 42.904L55.8035 41.752L56.8275 39.704C57.8515 37.7413 59.4302 35.6507 61.5635 33.432C63.6968 31.128 66.2568 29.208 69.2435 27.672C72.3155 26.0507 75.7288 25.24 79.4835 25.24C85.6275 25.24 90.2782 26.5627 93.4355 29.208C96.6782 31.8533 98.8968 35.3947 100.092 39.832C101.286 44.184 101.884 49.048 101.884 54.424V87.192C101.884 89.4107 101.158 91.288 99.7075 92.824C98.2568 94.2747 96.4222 95 94.2035 95C91.9848 95 90.1502 94.2747 88.6995 92.824C87.2488 91.288 86.5235 89.4107 86.5235 87.192V54.424C86.5235 51.608 86.1822 49.0907 85.4995 46.872C84.8168 44.568 83.5795 42.7333 81.7875 41.368C79.9955 40.0027 77.4355 39.32 74.1075 39.32C70.8648 39.32 68.0915 40.0027 65.7875 41.368C63.4835 42.7333 61.7342 44.568 60.5395 46.872C59.4302 49.0907 58.8755 51.608 58.8755 54.424V87.192C58.8755 89.4107 58.1502 91.288 56.6995 92.824C55.2488 94.2747 53.4142 95 51.1955 95C48.9768 95 47.1422 94.2747 45.6915 92.824C44.2408 91.288 43.5155 89.4107 43.5155 87.192V54.424C43.5155 51.608 43.1742 49.0907 42.4915 46.872C41.8088 44.568 40.5715 42.7333 38.7795 41.368C36.9875 40.0027 34.4275 39.32 31.0995 39.32C27.8568 39.32 25.0835 40.0027 22.7795 41.368C20.4755 42.7333 18.7262 44.568 17.5315 46.872C16.4222 49.0907 15.8675 51.608 15.8675 54.424V87.192C15.8675 89.4107 15.1422 91.288 13.6915 92.824C12.2408 94.2747 10.4062 95 8.1875 95C5.96883 95 4.13417 94.2747 2.6835 92.824C1.23283 91.288 0.507501 89.4107 0.507501 87.192V34.328C0.507501 32.1093 1.23283 30.2747 2.6835 28.824C4.13417 27.288 5.96883 26.52 8.1875 26.52C10.4062 26.52 12.2408 27.288 13.6915 28.824C15.1422 30.2747 15.8675 32.1093 15.8675 34.328V39.832L13.9475 39.448C14.7155 37.9973 15.7822 36.4613 17.1475 34.84C18.5128 33.1333 20.1768 31.5547 22.1395 30.104C24.1022 28.6533 26.2782 27.5013 28.6675 26.648C31.0568 25.7093 33.6595 25.24 36.4755 25.24ZM174.572 25.24C176.79 25.24 178.625 25.9653 180.076 27.416C181.526 28.8667 182.252 30.744 182.252 33.048V87.192C182.252 89.4107 181.526 91.288 180.076 92.824C178.625 94.2747 176.79 95 174.572 95C172.353 95 170.518 94.2747 169.068 92.824C167.617 91.288 166.892 89.4107 166.892 87.192V80.92L169.708 82.072C169.708 83.1813 169.11 84.5467 167.916 86.168C166.721 87.704 165.1 89.24 163.052 90.776C161.004 92.312 158.572 93.6347 155.756 94.744C153.025 95.768 150.038 96.28 146.796 96.28C140.908 96.28 135.574 94.7867 130.796 91.8C126.017 88.728 122.22 84.5467 119.404 79.256C116.673 73.88 115.308 67.736 115.308 60.824C115.308 53.8267 116.673 47.6827 119.404 42.392C122.22 37.016 125.974 32.8347 130.668 29.848C135.361 26.776 140.566 25.24 146.284 25.24C149.953 25.24 153.324 25.7947 156.396 26.904C159.468 28.0133 162.113 29.4213 164.332 31.128C166.636 32.8347 168.385 34.584 169.58 36.376C170.86 38.0827 171.5 39.5333 171.5 40.728L166.892 42.392V33.048C166.892 30.8293 167.617 28.9947 169.068 27.544C170.518 26.008 172.353 25.24 174.572 25.24ZM148.716 82.2C152.47 82.2 155.756 81.2613 158.572 79.384C161.388 77.5067 163.564 74.9467 165.1 71.704C166.721 68.4613 167.532 64.8347 167.532 60.824C167.532 56.728 166.721 53.0587 165.1 49.816C163.564 46.5733 161.388 44.0133 158.572 42.136C155.756 40.2587 152.47 39.32 148.716 39.32C145.046 39.32 141.804 40.2587 138.988 42.136C136.172 44.0133 133.953 46.5733 132.332 49.816C130.796 53.0587 130.028 56.728 130.028 60.824C130.028 64.8347 130.796 68.4613 132.332 71.704C133.953 74.9467 136.172 77.5067 138.988 79.384C141.804 81.2613 145.046 82.2 148.716 82.2ZM234.851 25.24C241.677 25.24 246.712 26.904 249.955 30.232C253.197 33.4747 255.331 37.6987 256.354 42.904L254.179 41.752L255.202 39.704C256.227 37.7413 257.805 35.6507 259.939 33.432C262.072 31.128 264.632 29.208 267.619 27.672C270.691 26.0507 274.104 25.24 277.859 25.24C284.003 25.24 288.653 26.5627 291.811 29.208C295.053 31.8533 297.272 35.3947 298.467 39.832C299.661 44.184 300.259 49.048 300.259 54.424V87.192C300.259 89.4107 299.533 91.288 298.083 92.824C296.632 94.2747 294.797 95 292.579 95C290.36 95 288.525 94.2747 287.075 92.824C285.624 91.288 284.899 89.4107 284.899 87.192V54.424C284.899 51.608 284.557 49.0907 283.875 46.872C283.192 44.568 281.955 42.7333 280.163 41.368C278.371 40.0027 275.811 39.32 272.483 39.32C269.24 39.32 266.467 40.0027 264.163 41.368C261.859 42.7333 260.109 44.568 258.915 46.872C257.805 49.0907 257.251 51.608 257.251 54.424V87.192C257.251 89.4107 256.525 91.288 255.075 92.824C253.624 94.2747 251.789 95 249.571 95C247.352 95 245.517 94.2747 244.067 92.824C242.616 91.288 241.891 89.4107 241.891 87.192V54.424C241.891 51.608 241.549 49.0907 240.867 46.872C240.184 44.568 238.947 42.7333 237.155 41.368C235.363 40.0027 232.803 39.32 229.475 39.32C226.232 39.32 223.459 40.0027 221.155 41.368C218.851 42.7333 217.101 44.568 215.907 46.872C214.797 49.0907 214.243 51.608 214.243 54.424V87.192C214.243 89.4107 213.517 91.288 212.067 92.824C210.616 94.2747 208.781 95 206.562 95C204.344 95 202.509 94.2747 201.059 92.824C199.608 91.288 198.883 89.4107 198.883 87.192V34.328C198.883 32.1093 199.608 30.2747 201.059 28.824C202.509 27.288 204.344 26.52 206.562 26.52C208.781 26.52 210.616 27.288 212.067 28.824C213.517 30.2747 214.243 32.1093 214.243 34.328V39.832L212.323 39.448C213.091 37.9973 214.157 36.4613 215.523 34.84C216.888 33.1333 218.552 31.5547 220.515 30.104C222.477 28.6533 224.653 27.5013 227.043 26.648C229.432 25.7093 232.035 25.24 234.851 25.24ZM352.339 25.24C358.312 25.24 363.645 26.776 368.339 29.848C373.117 32.8347 376.872 36.9733 379.603 42.264C382.419 47.5547 383.826 53.6987 383.826 60.696C383.826 67.6933 382.419 73.88 379.603 79.256C376.872 84.5467 373.16 88.728 368.467 91.8C363.859 94.7867 358.653 96.28 352.851 96.28C349.437 96.28 346.237 95.7253 343.251 94.616C340.264 93.5067 337.619 92.0987 335.315 90.392C333.096 88.6853 331.347 86.9787 330.067 85.272C328.872 83.48 328.275 81.9867 328.275 80.792L332.243 79.128V88.472C332.243 90.6907 331.517 92.568 330.067 94.104C328.616 95.5547 326.781 96.28 324.562 96.28C322.344 96.28 320.509 95.5547 319.059 94.104C317.608 92.6533 316.883 90.776 316.883 88.472V8.088C316.883 5.86933 317.608 4.03466 319.059 2.58399C320.509 1.048 322.344 0.279999 324.562 0.279999C326.781 0.279999 328.616 1.048 330.067 2.58399C331.517 4.03466 332.243 5.86933 332.243 8.088V40.6L330.067 39.448C330.067 38.3387 330.664 37.016 331.859 35.48C333.053 33.8587 334.675 32.28 336.723 30.744C338.771 29.1227 341.117 27.8 343.763 26.776C346.493 25.752 349.352 25.24 352.339 25.24ZM350.419 39.32C346.664 39.32 343.379 40.2587 340.562 42.136C337.747 44.0133 335.528 46.5733 333.907 49.816C332.371 52.9733 331.603 56.6 331.603 60.696C331.603 64.7067 332.371 68.376 333.907 71.704C335.528 74.9467 337.747 77.5067 340.562 79.384C343.379 81.2613 346.664 82.2 350.419 82.2C354.173 82.2 357.416 81.2613 360.147 79.384C362.963 77.5067 365.139 74.9467 366.675 71.704C368.296 68.376 369.107 64.7067 369.107 60.696C369.107 56.6 368.296 52.9733 366.675 49.816C365.139 46.5733 362.963 44.0133 360.147 42.136C357.416 40.2587 354.173 39.32 350.419 39.32ZM463.69 60.824C463.69 67.8213 462.111 74.008 458.954 79.384C455.882 84.6747 451.7 88.8133 446.41 91.8C441.204 94.7867 435.359 96.28 428.874 96.28C422.388 96.28 416.5 94.7867 411.21 91.8C406.004 88.8133 401.823 84.6747 398.666 79.384C395.594 74.008 394.058 67.8213 394.058 60.824C394.058 53.8267 395.594 47.6827 398.666 42.392C401.823 37.016 406.004 32.8347 411.21 29.848C416.5 26.776 422.388 25.24 428.874 25.24C435.359 25.24 441.204 26.776 446.41 29.848C451.7 32.8347 455.882 37.016 458.954 42.392C462.111 47.6827 463.69 53.8267 463.69 60.824ZM448.33 60.824C448.33 56.472 447.434 52.7173 445.642 49.56C443.935 46.3173 441.588 43.8 438.602 42.008C435.7 40.216 432.458 39.32 428.874 39.32C425.29 39.32 422.004 40.216 419.018 42.008C416.116 43.8 413.77 46.3173 411.978 49.56C410.271 52.7173 409.418 56.472 409.418 60.824C409.418 65.0907 410.271 68.8453 411.978 72.088C413.77 75.2453 416.116 77.72 419.018 79.512C422.004 81.304 425.29 82.2 428.874 82.2C432.458 82.2 435.7 81.304 438.602 79.512C441.588 77.72 443.935 75.2453 445.642 72.088C447.434 68.8453 448.33 65.0907 448.33 60.824Z"/>
</mask>
<path d="M36.4755 25.24C43.3022 25.24 48.3368 26.904 51.5795 30.232C54.8222 33.4747 56.9555 37.6987 57.9795 42.904L55.8035 41.752L56.8275 39.704C57.8515 37.7413 59.4302 35.6507 61.5635 33.432C63.6968 31.128 66.2568 29.208 69.2435 27.672C72.3155 26.0507 75.7288 25.24 79.4835 25.24C85.6275 25.24 90.2782 26.5627 93.4355 29.208C96.6782 31.8533 98.8968 35.3947 100.092 39.832C101.286 44.184 101.884 49.048 101.884 54.424V87.192C101.884 89.4107 101.158 91.288 99.7075 92.824C98.2568 94.2747 96.4222 95 94.2035 95C91.9848 95 90.1502 94.2747 88.6995 92.824C87.2488 91.288 86.5235 89.4107 86.5235 87.192V54.424C86.5235 51.608 86.1822 49.0907 85.4995 46.872C84.8168 44.568 83.5795 42.7333 81.7875 41.368C79.9955 40.0027 77.4355 39.32 74.1075 39.32C70.8648 39.32 68.0915 40.0027 65.7875 41.368C63.4835 42.7333 61.7342 44.568 60.5395 46.872C59.4302 49.0907 58.8755 51.608 58.8755 54.424V87.192C58.8755 89.4107 58.1502 91.288 56.6995 92.824C55.2488 94.2747 53.4142 95 51.1955 95C48.9768 95 47.1422 94.2747 45.6915 92.824C44.2408 91.288 43.5155 89.4107 43.5155 87.192V54.424C43.5155 51.608 43.1742 49.0907 42.4915 46.872C41.8088 44.568 40.5715 42.7333 38.7795 41.368C36.9875 40.0027 34.4275 39.32 31.0995 39.32C27.8568 39.32 25.0835 40.0027 22.7795 41.368C20.4755 42.7333 18.7262 44.568 17.5315 46.872C16.4222 49.0907 15.8675 51.608 15.8675 54.424V87.192C15.8675 89.4107 15.1422 91.288 13.6915 92.824C12.2408 94.2747 10.4062 95 8.1875 95C5.96883 95 4.13417 94.2747 2.6835 92.824C1.23283 91.288 0.507501 89.4107 0.507501 87.192V34.328C0.507501 32.1093 1.23283 30.2747 2.6835 28.824C4.13417 27.288 5.96883 26.52 8.1875 26.52C10.4062 26.52 12.2408 27.288 13.6915 28.824C15.1422 30.2747 15.8675 32.1093 15.8675 34.328V39.832L13.9475 39.448C14.7155 37.9973 15.7822 36.4613 17.1475 34.84C18.5128 33.1333 20.1768 31.5547 22.1395 30.104C24.1022 28.6533 26.2782 27.5013 28.6675 26.648C31.0568 25.7093 33.6595 25.24 36.4755 25.24ZM174.572 25.24C176.79 25.24 178.625 25.9653 180.076 27.416C181.526 28.8667 182.252 30.744 182.252 33.048V87.192C182.252 89.4107 181.526 91.288 180.076 92.824C178.625 94.2747 176.79 95 174.572 95C172.353 95 170.518 94.2747 169.068 92.824C167.617 91.288 166.892 89.4107 166.892 87.192V80.92L169.708 82.072C169.708 83.1813 169.11 84.5467 167.916 86.168C166.721 87.704 165.1 89.24 163.052 90.776C161.004 92.312 158.572 93.6347 155.756 94.744C153.025 95.768 150.038 96.28 146.796 96.28C140.908 96.28 135.574 94.7867 130.796 91.8C126.017 88.728 122.22 84.5467 119.404 79.256C116.673 73.88 115.308 67.736 115.308 60.824C115.308 53.8267 116.673 47.6827 119.404 42.392C122.22 37.016 125.974 32.8347 130.668 29.848C135.361 26.776 140.566 25.24 146.284 25.24C149.953 25.24 153.324 25.7947 156.396 26.904C159.468 28.0133 162.113 29.4213 164.332 31.128C166.636 32.8347 168.385 34.584 169.58 36.376C170.86 38.0827 171.5 39.5333 171.5 40.728L166.892 42.392V33.048C166.892 30.8293 167.617 28.9947 169.068 27.544C170.518 26.008 172.353 25.24 174.572 25.24ZM148.716 82.2C152.47 82.2 155.756 81.2613 158.572 79.384C161.388 77.5067 163.564 74.9467 165.1 71.704C166.721 68.4613 167.532 64.8347 167.532 60.824C167.532 56.728 166.721 53.0587 165.1 49.816C163.564 46.5733 161.388 44.0133 158.572 42.136C155.756 40.2587 152.47 39.32 148.716 39.32C145.046 39.32 141.804 40.2587 138.988 42.136C136.172 44.0133 133.953 46.5733 132.332 49.816C130.796 53.0587 130.028 56.728 130.028 60.824C130.028 64.8347 130.796 68.4613 132.332 71.704C133.953 74.9467 136.172 77.5067 138.988 79.384C141.804 81.2613 145.046 82.2 148.716 82.2ZM234.851 25.24C241.677 25.24 246.712 26.904 249.955 30.232C253.197 33.4747 255.331 37.6987 256.354 42.904L254.179 41.752L255.202 39.704C256.227 37.7413 257.805 35.6507 259.939 33.432C262.072 31.128 264.632 29.208 267.619 27.672C270.691 26.0507 274.104 25.24 277.859 25.24C284.003 25.24 288.653 26.5627 291.811 29.208C295.053 31.8533 297.272 35.3947 298.467 39.832C299.661 44.184 300.259 49.048 300.259 54.424V87.192C300.259 89.4107 299.533 91.288 298.083 92.824C296.632 94.2747 294.797 95 292.579 95C290.36 95 288.525 94.2747 287.075 92.824C285.624 91.288 284.899 89.4107 284.899 87.192V54.424C284.899 51.608 284.557 49.0907 283.875 46.872C283.192 44.568 281.955 42.7333 280.163 41.368C278.371 40.0027 275.811 39.32 272.483 39.32C269.24 39.32 266.467 40.0027 264.163 41.368C261.859 42.7333 260.109 44.568 258.915 46.872C257.805 49.0907 257.251 51.608 257.251 54.424V87.192C257.251 89.4107 256.525 91.288 255.075 92.824C253.624 94.2747 251.789 95 249.571 95C247.352 95 245.517 94.2747 244.067 92.824C242.616 91.288 241.891 89.4107 241.891 87.192V54.424C241.891 51.608 241.549 49.0907 240.867 46.872C240.184 44.568 238.947 42.7333 237.155 41.368C235.363 40.0027 232.803 39.32 229.475 39.32C226.232 39.32 223.459 40.0027 221.155 41.368C218.851 42.7333 217.101 44.568 215.907 46.872C214.797 49.0907 214.243 51.608 214.243 54.424V87.192C214.243 89.4107 213.517 91.288 212.067 92.824C210.616 94.2747 208.781 95 206.562 95C204.344 95 202.509 94.2747 201.059 92.824C199.608 91.288 198.883 89.4107 198.883 87.192V34.328C198.883 32.1093 199.608 30.2747 201.059 28.824C202.509 27.288 204.344 26.52 206.562 26.52C208.781 26.52 210.616 27.288 212.067 28.824C213.517 30.2747 214.243 32.1093 214.243 34.328V39.832L212.323 39.448C213.091 37.9973 214.157 36.4613 215.523 34.84C216.888 33.1333 218.552 31.5547 220.515 30.104C222.477 28.6533 224.653 27.5013 227.043 26.648C229.432 25.7093 232.035 25.24 234.851 25.24ZM352.339 25.24C358.312 25.24 363.645 26.776 368.339 29.848C373.117 32.8347 376.872 36.9733 379.603 42.264C382.419 47.5547 383.826 53.6987 383.826 60.696C383.826 67.6933 382.419 73.88 379.603 79.256C376.872 84.5467 373.16 88.728 368.467 91.8C363.859 94.7867 358.653 96.28 352.851 96.28C349.437 96.28 346.237 95.7253 343.251 94.616C340.264 93.5067 337.619 92.0987 335.315 90.392C333.096 88.6853 331.347 86.9787 330.067 85.272C328.872 83.48 328.275 81.9867 328.275 80.792L332.243 79.128V88.472C332.243 90.6907 331.517 92.568 330.067 94.104C328.616 95.5547 326.781 96.28 324.562 96.28C322.344 96.28 320.509 95.5547 319.059 94.104C317.608 92.6533 316.883 90.776 316.883 88.472V8.088C316.883 5.86933 317.608 4.03466 319.059 2.58399C320.509 1.048 322.344 0.279999 324.562 0.279999C326.781 0.279999 328.616 1.048 330.067 2.58399C331.517 4.03466 332.243 5.86933 332.243 8.088V40.6L330.067 39.448C330.067 38.3387 330.664 37.016 331.859 35.48C333.053 33.8587 334.675 32.28 336.723 30.744C338.771 29.1227 341.117 27.8 343.763 26.776C346.493 25.752 349.352 25.24 352.339 25.24ZM350.419 39.32C346.664 39.32 343.379 40.2587 340.562 42.136C337.747 44.0133 335.528 46.5733 333.907 49.816C332.371 52.9733 331.603 56.6 331.603 60.696C331.603 64.7067 332.371 68.376 333.907 71.704C335.528 74.9467 337.747 77.5067 340.562 79.384C343.379 81.2613 346.664 82.2 350.419 82.2C354.173 82.2 357.416 81.2613 360.147 79.384C362.963 77.5067 365.139 74.9467 366.675 71.704C368.296 68.376 369.107 64.7067 369.107 60.696C369.107 56.6 368.296 52.9733 366.675 49.816C365.139 46.5733 362.963 44.0133 360.147 42.136C357.416 40.2587 354.173 39.32 350.419 39.32ZM463.69 60.824C463.69 67.8213 462.111 74.008 458.954 79.384C455.882 84.6747 451.7 88.8133 446.41 91.8C441.204 94.7867 435.359 96.28 428.874 96.28C422.388 96.28 416.5 94.7867 411.21 91.8C406.004 88.8133 401.823 84.6747 398.666 79.384C395.594 74.008 394.058 67.8213 394.058 60.824C394.058 53.8267 395.594 47.6827 398.666 42.392C401.823 37.016 406.004 32.8347 411.21 29.848C416.5 26.776 422.388 25.24 428.874 25.24C435.359 25.24 441.204 26.776 446.41 29.848C451.7 32.8347 455.882 37.016 458.954 42.392C462.111 47.6827 463.69 53.8267 463.69 60.824ZM448.33 60.824C448.33 56.472 447.434 52.7173 445.642 49.56C443.935 46.3173 441.588 43.8 438.602 42.008C435.7 40.216 432.458 39.32 428.874 39.32C425.29 39.32 422.004 40.216 419.018 42.008C416.116 43.8 413.77 46.3173 411.978 49.56C410.271 52.7173 409.418 56.472 409.418 60.824C409.418 65.0907 410.271 68.8453 411.978 72.088C413.77 75.2453 416.116 77.72 419.018 79.512C422.004 81.304 425.29 82.2 428.874 82.2C432.458 82.2 435.7 81.304 438.602 79.512C441.588 77.72 443.935 75.2453 445.642 72.088C447.434 68.8453 448.33 65.0907 448.33 60.824Z" fill="white"/>
<path d="M51.5795 30.232L49.4308 32.3256L49.4444 32.3395L49.4582 32.3533L51.5795 30.232ZM57.9795 42.904L56.5758 45.5554L62.1378 48.5L60.9231 42.3249L57.9795 42.904ZM55.8035 41.752L53.1202 40.4104L51.8094 43.032L54.3998 44.4034L55.8035 41.752ZM56.8275 39.704L54.1677 38.3163L54.1558 38.3392L54.1442 38.3624L56.8275 39.704ZM61.5635 33.432L63.726 35.5113L63.7456 35.491L63.7648 35.4702L61.5635 33.432ZM69.2435 27.672L70.6156 30.3399L70.6297 30.3326L70.6438 30.3252L69.2435 27.672ZM93.4355 29.208L91.5088 31.5076L91.5239 31.5202L91.5391 31.5326L93.4355 29.208ZM100.092 39.832L97.1947 40.6119L97.1966 40.619L97.1985 40.6261L100.092 39.832ZM99.7075 92.824L101.829 94.9453L101.859 94.915L101.889 94.8839L99.7075 92.824ZM88.6995 92.824L86.5185 94.8839L86.5479 94.915L86.5782 94.9453L88.6995 92.824ZM85.4995 46.872L82.6231 47.7243L82.6276 47.7393L82.6322 47.7543L85.4995 46.872ZM81.7875 41.368L83.6056 38.9817L83.6056 38.9817L81.7875 41.368ZM60.5395 46.872L57.8762 45.491L57.8661 45.5106L57.8562 45.5304L60.5395 46.872ZM56.6995 92.824L58.8208 94.9453L58.8511 94.915L58.8805 94.8839L56.6995 92.824ZM45.6915 92.824L43.5105 94.8839L43.5399 94.915L43.5702 94.9453L45.6915 92.824ZM42.4915 46.872L39.6151 47.7243L39.6196 47.7393L39.6242 47.7543L42.4915 46.872ZM22.7795 41.368L24.3089 43.9489L22.7795 41.368ZM17.5315 46.872L14.8682 45.491L14.8581 45.5106L14.8482 45.5304L17.5315 46.872ZM13.6915 92.824L15.8128 94.9453L15.8431 94.915L15.8725 94.8839L13.6915 92.824ZM2.6835 92.824L0.502461 94.8839L0.531882 94.915L0.56218 94.9453L2.6835 92.824ZM2.6835 28.824L4.80482 30.9453L4.83512 30.915L4.86454 30.8839L2.6835 28.824ZM13.6915 28.824L11.5105 30.8839L11.5399 30.915L11.5702 30.9453L13.6915 28.824ZM15.8675 39.832L15.2792 42.7737L18.8675 43.4914V39.832H15.8675ZM13.9475 39.448L11.2961 38.0443L9.41341 41.6006L13.3592 42.3897L13.9475 39.448ZM17.1475 34.84L19.4422 36.7724L19.4665 36.7435L19.4901 36.7141L17.1475 34.84ZM22.1395 30.104L23.9227 32.5165L23.9227 32.5165L22.1395 30.104ZM28.6675 26.648L29.6765 29.4732L29.7207 29.4574L29.7645 29.4403L28.6675 26.648ZM36.4755 28.24C42.8728 28.24 46.9719 29.802 49.4308 32.3256L53.7282 28.1384C49.7017 24.006 43.7315 22.24 36.4755 22.24V28.24ZM49.4582 32.3533C52.2167 35.1118 54.1083 38.7679 55.0359 43.4831L60.9231 42.3249C59.8027 36.6294 57.4276 31.8375 53.7008 28.1107L49.4582 32.3533ZM59.3832 40.2526L57.2072 39.1006L54.3998 44.4034L56.5758 45.5554L59.3832 40.2526ZM58.4868 43.0936L59.5108 41.0456L54.1442 38.3624L53.1202 40.4104L58.4868 43.0936ZM59.4873 41.0917C60.339 39.4591 61.7195 37.5981 63.726 35.5113L59.401 31.3527C57.1408 33.7033 55.364 36.0236 54.1677 38.3163L59.4873 41.0917ZM63.7648 35.4702C65.6444 33.4402 67.9181 31.7271 70.6156 30.3399L67.8715 25.0041C64.5956 26.6889 61.7492 28.8158 59.3622 31.3938L63.7648 35.4702ZM70.6438 30.3252C73.2498 28.9498 76.1764 28.24 79.4835 28.24V22.24C75.2813 22.24 71.3812 23.1516 67.8432 25.0188L70.6438 30.3252ZM79.4835 28.24C85.2575 28.24 89.102 29.491 91.5088 31.5076L95.3622 26.9084C91.4544 23.6343 85.9975 22.24 79.4835 22.24V28.24ZM91.5391 31.5326C94.2468 33.7415 96.1466 36.719 97.1947 40.6119L102.988 39.0521C101.647 34.0703 99.1096 29.9652 95.3319 26.8834L91.5391 31.5326ZM97.1985 40.6261C98.3102 44.6756 98.8835 49.2668 98.8835 54.424H104.884C104.884 48.8292 104.262 43.6924 102.984 39.0378L97.1985 40.6261ZM98.8835 54.424V87.192H104.884V54.424H98.8835ZM98.8835 87.192C98.8835 88.687 98.4228 89.8151 97.5265 90.7641L101.889 94.8839C103.894 92.7609 104.884 90.1343 104.884 87.192H98.8835ZM97.5862 90.7027C96.7468 91.5421 95.6981 92 94.2035 92V98C97.1463 98 99.7669 97.0072 101.829 94.9453L97.5862 90.7027ZM94.2035 92C92.7089 92 91.6602 91.5421 90.8208 90.7027L86.5782 94.9453C88.6401 97.0072 91.2607 98 94.2035 98V92ZM90.8805 90.7641C89.9842 89.8151 89.5235 88.687 89.5235 87.192H83.5235C83.5235 90.1343 84.5135 92.7609 86.5185 94.8839L90.8805 90.7641ZM89.5235 87.192V54.424H83.5235V87.192H89.5235ZM89.5235 54.424C89.5235 51.3703 89.1538 48.5475 88.3668 45.9897L82.6322 47.7543C83.2105 49.6338 83.5235 51.8457 83.5235 54.424H89.5235ZM88.3759 46.0197C87.5251 43.1482 85.939 40.7595 83.6056 38.9817L79.9694 43.7543C81.22 44.7072 82.1086 45.9878 82.6231 47.7243L88.3759 46.0197ZM83.6056 38.9817C81.0942 37.0682 77.7921 36.32 74.1075 36.32V42.32C77.0789 42.32 78.8968 42.9371 79.9694 43.7543L83.6056 38.9817ZM74.1075 36.32C70.4402 36.32 67.1138 37.0948 64.2581 38.7871L67.3169 43.9489C69.0692 42.9105 71.2895 42.32 74.1075 42.32V36.32ZM64.2581 38.7871C61.4876 40.4289 59.3377 42.6724 57.8762 45.491L63.2028 48.2529C64.1306 46.4636 65.4794 45.0378 67.3169 43.9489L64.2581 38.7871ZM57.8562 45.5304C56.512 48.2188 55.8755 51.2057 55.8755 54.424H61.8755C61.8755 52.0103 62.3483 49.9625 63.2228 48.2136L57.8562 45.5304ZM55.8755 54.424V87.192H61.8755V54.424H55.8755ZM55.8755 87.192C55.8755 88.687 55.4148 89.8151 54.5185 90.7641L58.8805 94.8839C60.8855 92.7609 61.8755 90.1343 61.8755 87.192H55.8755ZM54.5782 90.7027C53.7388 91.5421 52.6901 92 51.1955 92V98C54.1383 98 56.7589 97.0072 58.8208 94.9453L54.5782 90.7027ZM51.1955 92C49.7009 92 48.6522 91.5421 47.8128 90.7027L43.5702 94.9453C45.6321 97.0072 48.2527 98 51.1955 98V92ZM47.8725 90.7641C46.9762 89.8151 46.5155 88.687 46.5155 87.192H40.5155C40.5155 90.1343 41.5055 92.7609 43.5105 94.8839L47.8725 90.7641ZM46.5155 87.192V54.424H40.5155V87.192H46.5155ZM46.5155 54.424C46.5155 51.3703 46.1458 48.5475 45.3588 45.9897L39.6242 47.7543C40.2025 49.6338 40.5155 51.8457 40.5155 54.424H46.5155ZM45.3679 46.0197C44.5171 43.1482 42.931 40.7595 40.5976 38.9817L36.9614 43.7543C38.212 44.7072 39.1006 45.9878 39.6151 47.7243L45.3679 46.0197ZM40.5976 38.9817C38.0862 37.0682 34.7841 36.32 31.0995 36.32V42.32C34.0709 42.32 35.8888 42.9371 36.9614 43.7543L40.5976 38.9817ZM31.0995 36.32C27.4322 36.32 24.1058 37.0948 21.2501 38.7871L24.3089 43.9489C26.0612 42.9105 28.2815 42.32 31.0995 42.32V36.32ZM21.2501 38.7871C18.4796 40.4289 16.3297 42.6724 14.8682 45.491L20.1948 48.2529C21.1226 46.4636 22.4714 45.0378 24.3089 43.9489L21.2501 38.7871ZM14.8482 45.5304C13.504 48.2188 12.8675 51.2057 12.8675 54.424H18.8675C18.8675 52.0103 19.3403 49.9625 20.2148 48.2136L14.8482 45.5304ZM12.8675 54.424V87.192H18.8675V54.424H12.8675ZM12.8675 87.192C12.8675 88.687 12.4068 89.8151 11.5105 90.7641L15.8725 94.8839C17.8775 92.7609 18.8675 90.1343 18.8675 87.192H12.8675ZM11.5702 90.7027C10.7308 91.5421 9.68206 92 8.1875 92V98C11.1303 98 13.7509 97.0072 15.8128 94.9453L11.5702 90.7027ZM8.1875 92C6.69294 92 5.64423 91.5421 4.80482 90.7027L0.56218 94.9453C2.62411 97.0072 5.24473 98 8.1875 98V92ZM4.86454 90.7641C3.96821 89.8151 3.5075 88.687 3.5075 87.192H-2.4925C-2.4925 90.1343 -1.50254 92.7609 0.502461 94.8839L4.86454 90.7641ZM3.5075 87.192V34.328H-2.4925V87.192H3.5075ZM3.5075 34.328C3.5075 32.8334 3.96541 31.7847 4.80482 30.9453L0.562179 26.7027C-1.49974 28.7646 -2.4925 31.3852 -2.4925 34.328H3.5075ZM4.86454 30.8839C5.71734 29.9809 6.74775 29.52 8.1875 29.52V23.52C5.18992 23.52 2.55099 24.5951 0.502461 26.7641L4.86454 30.8839ZM8.1875 29.52C9.62725 29.52 10.6577 29.9809 11.5105 30.8839L15.8725 26.7641C13.824 24.5951 11.1851 23.52 8.1875 23.52V29.52ZM11.5702 30.9453C12.4096 31.7847 12.8675 32.8334 12.8675 34.328H18.8675C18.8675 31.3852 17.8747 28.7646 15.8128 26.7027L11.5702 30.9453ZM12.8675 34.328V39.832H18.8675V34.328H12.8675ZM16.4558 36.8903L14.5358 36.5063L13.3592 42.3897L15.2792 42.7737L16.4558 36.8903ZM16.5989 40.8517C17.2432 39.6347 18.1768 38.2751 19.4422 36.7724L14.8528 32.9076C13.3876 34.6475 12.1878 36.36 11.2961 38.0443L16.5989 40.8517ZM19.4901 36.7141C20.6754 35.2324 22.145 33.8304 23.9227 32.5165L20.3563 27.6915C18.2086 29.2789 16.3502 31.0343 14.8049 32.9659L19.4901 36.7141ZM23.9227 32.5165C25.6397 31.2474 27.553 30.2316 29.6765 29.4732L27.6585 23.8228C25.0033 24.7711 22.5647 26.0592 20.3563 27.6915L23.9227 32.5165ZM29.7645 29.4403C31.7719 28.6516 33.9985 28.24 36.4755 28.24V22.24C33.3205 22.24 30.3417 22.7671 27.5705 23.8557L29.7645 29.4403ZM180.076 27.416L177.954 29.5373L177.954 29.5373L180.076 27.416ZM180.076 92.824L182.197 94.9453L182.227 94.915L182.257 94.8839L180.076 92.824ZM169.068 92.824L166.886 94.8839L166.916 94.915L166.946 94.9453L169.068 92.824ZM166.892 80.92L168.027 78.1434L163.892 76.4514V80.92H166.892ZM169.708 82.072H172.708V80.0579L170.843 79.2954L169.708 82.072ZM167.916 86.168L170.284 88.0098L170.308 87.979L170.331 87.9476L167.916 86.168ZM163.052 90.776L164.852 93.176L164.852 93.176L163.052 90.776ZM155.756 94.744L156.809 97.553L156.832 97.5443L156.855 97.5352L155.756 94.744ZM130.796 91.8L129.173 94.3235L129.189 94.3339L129.206 94.344L130.796 91.8ZM119.404 79.256L116.729 80.6146L116.742 80.6402L116.755 80.6655L119.404 79.256ZM119.404 42.392L116.746 41L116.742 41.008L116.738 41.0161L119.404 42.392ZM130.668 29.848L132.278 32.379L132.294 32.3686L132.31 32.3581L130.668 29.848ZM156.396 26.904L155.377 29.7257L155.377 29.7257L156.396 26.904ZM164.332 31.128L162.502 33.5059L162.524 33.5225L162.546 33.5387L164.332 31.128ZM169.58 36.376L167.083 38.0401L167.13 38.1094L167.18 38.176L169.58 36.376ZM171.5 40.728L172.518 43.5497L174.5 42.8343V40.728H171.5ZM166.892 42.392H163.892V46.6649L167.91 45.2137L166.892 42.392ZM169.068 27.544L171.189 29.6653L171.219 29.635L171.249 29.6039L169.068 27.544ZM158.572 79.384L156.907 76.8878L156.907 76.8878L158.572 79.384ZM165.1 71.704L162.416 70.3624L162.402 70.3909L162.388 70.4197L165.1 71.704ZM165.1 49.816L162.388 51.1003L162.402 51.1291L162.416 51.1576L165.1 49.816ZM158.572 42.136L156.907 44.6321L156.907 44.6321L158.572 42.136ZM138.988 42.136L140.652 44.6321L140.652 44.6321L138.988 42.136ZM132.332 49.816L129.648 48.4744L129.634 48.5029L129.62 48.5317L132.332 49.816ZM132.332 71.704L129.62 72.9883L129.634 73.0171L129.648 73.0456L132.332 71.704ZM138.988 79.384L140.652 76.8878L140.652 76.8878L138.988 79.384ZM174.572 28.24C176.066 28.24 177.115 28.6979 177.954 29.5373L182.197 25.2947C180.135 23.2328 177.514 22.24 174.572 22.24V28.24ZM177.954 29.5373C178.771 30.354 179.252 31.4327 179.252 33.048H185.252C185.252 30.0553 184.281 27.3793 182.197 25.2947L177.954 29.5373ZM179.252 33.048V87.192H185.252V33.048H179.252ZM179.252 87.192C179.252 88.687 178.791 89.8151 177.894 90.7641L182.257 94.8839C184.262 92.7609 185.252 90.1343 185.252 87.192H179.252ZM177.954 90.7027C177.115 91.5421 176.066 92 174.572 92V98C177.514 98 180.135 97.0072 182.197 94.9453L177.954 90.7027ZM174.572 92C173.077 92 172.028 91.5421 171.189 90.7027L166.946 94.9453C169.008 97.0072 171.629 98 174.572 98V92ZM171.249 90.7641C170.352 89.8151 169.892 88.687 169.892 87.192H163.892C163.892 90.1343 164.881 92.7609 166.886 94.8839L171.249 90.7641ZM169.892 87.192V80.92H163.892V87.192H169.892ZM165.756 83.6966L168.572 84.8486L170.843 79.2954L168.027 78.1434L165.756 83.6966ZM166.708 82.072C166.708 82.1996 166.586 82.915 165.5 84.3884L170.331 87.9476C171.634 86.1783 172.708 84.1631 172.708 82.072H166.708ZM165.547 84.3262C164.559 85.5975 163.149 86.9528 161.252 88.376L164.852 93.176C167.05 91.5272 168.883 89.8105 170.284 88.0098L165.547 84.3262ZM161.252 88.376C159.453 89.7247 157.266 90.9245 154.656 91.9528L156.855 97.5352C159.877 96.3448 162.554 94.8993 164.852 93.176L161.252 88.376ZM154.702 91.935C152.344 92.8194 149.719 93.28 146.796 93.28V99.28C150.358 99.28 153.706 98.7166 156.809 97.553L154.702 91.935ZM146.796 93.28C141.443 93.28 136.665 91.931 132.385 89.256L129.206 94.344C134.483 97.6424 140.372 99.28 146.796 99.28V93.28ZM132.418 89.2765C128.095 86.4973 124.64 82.71 122.052 77.8465L116.755 80.6655C119.799 86.3834 123.939 90.9587 129.173 94.3235L132.418 89.2765ZM122.078 77.8974C119.591 73.0002 118.308 67.3333 118.308 60.824H112.308C112.308 68.1387 113.755 74.7598 116.729 80.6146L122.078 77.8974ZM118.308 60.824C118.308 54.2216 119.594 48.5645 122.069 43.7679L116.738 41.0161C113.752 46.8008 112.308 53.4317 112.308 60.824H118.308ZM122.061 43.784C124.656 38.8292 128.067 35.0588 132.278 32.379L129.057 27.317C123.881 30.6105 119.783 35.2028 116.746 41L122.061 43.784ZM132.31 32.3581C136.506 29.6122 141.138 28.24 146.284 28.24V22.24C139.994 22.24 134.216 23.9398 129.025 27.3379L132.31 32.3581ZM146.284 28.24C149.648 28.24 152.669 28.7479 155.377 29.7257L157.414 24.0823C153.978 22.8414 150.258 22.24 146.284 22.24V28.24ZM155.377 29.7257C158.205 30.7469 160.566 32.0165 162.502 33.5059L166.161 28.7501C163.659 26.8261 160.73 25.2797 157.414 24.0823L155.377 29.7257ZM162.546 33.5387C164.658 35.1034 166.132 36.6138 167.083 38.0401L172.076 34.7119C170.637 32.5542 168.613 30.5659 166.117 28.7173L162.546 33.5387ZM167.18 38.176C168.34 39.7235 168.5 40.5216 168.5 40.728H174.5C174.5 38.5451 173.379 36.4418 171.98 34.576L167.18 38.176ZM170.481 37.9063L165.873 39.5703L167.91 45.2137L172.518 43.5497L170.481 37.9063ZM169.892 42.392V33.048H163.892V42.392H169.892ZM169.892 33.048C169.892 31.5534 170.349 30.5047 171.189 29.6653L166.946 25.4227C164.884 27.4846 163.892 30.1052 163.892 33.048H169.892ZM171.249 29.6039C172.101 28.7009 173.132 28.24 174.572 28.24V22.24C171.574 22.24 168.935 23.3151 166.886 25.4841L171.249 29.6039ZM148.716 85.2C152.995 85.2 156.874 84.1215 160.236 81.8801L156.907 76.8878C154.637 78.4012 151.945 79.2 148.716 79.2V85.2ZM160.236 81.8801C163.532 79.6829 166.057 76.6915 167.811 72.9883L162.388 70.4197C161.07 73.2018 159.243 75.3305 156.907 76.8878L160.236 81.8801ZM167.783 73.0456C169.634 69.3437 170.532 65.2502 170.532 60.824H164.532C164.532 64.4191 163.808 67.5789 162.416 70.3624L167.783 73.0456ZM170.532 60.824C170.532 56.3232 169.638 52.1849 167.783 48.4744L162.416 51.1576C163.804 53.9325 164.532 57.1328 164.532 60.824H170.532ZM167.811 48.5317C166.057 44.8285 163.532 41.8371 160.236 39.6398L156.907 44.6321C159.243 46.1895 161.07 48.3182 162.388 51.1003L167.811 48.5317ZM160.236 39.6398C156.874 37.3985 152.995 36.32 148.716 36.32V42.32C151.945 42.32 154.637 43.1188 156.907 44.6321L160.236 39.6398ZM148.716 36.32C144.506 36.32 140.674 37.4062 137.323 39.6398L140.652 44.6321C142.933 43.1111 145.586 42.32 148.716 42.32V36.32ZM137.323 39.6398C134.042 41.8274 131.486 44.7991 129.648 48.4744L135.015 51.1576C136.42 48.3476 138.301 46.1993 140.652 44.6321L137.323 39.6398ZM129.62 48.5317C127.869 52.2291 127.028 56.3468 127.028 60.824H133.028C133.028 57.1092 133.722 53.8882 135.043 51.1003L129.62 48.5317ZM127.028 60.824C127.028 65.2262 127.873 69.2991 129.62 72.9883L135.043 70.4197C133.718 67.6235 133.028 64.4432 133.028 60.824H127.028ZM129.648 73.0456C131.486 76.7209 134.042 79.6926 137.323 81.8801L140.652 76.8878C138.301 75.3207 136.42 73.1724 135.015 70.3624L129.648 73.0456ZM137.323 81.8801C140.674 84.1138 144.506 85.2 148.716 85.2V79.2C145.586 79.2 142.933 78.4089 140.652 76.8878L137.323 81.8801ZM249.955 30.232L247.806 32.3256L247.819 32.3395L247.833 32.3533L249.955 30.232ZM256.354 42.904L254.951 45.5554L260.513 48.5L259.298 42.3249L256.354 42.904ZM254.179 41.752L251.495 40.4104L250.184 43.032L252.775 44.4034L254.179 41.752ZM255.202 39.704L252.543 38.3163L252.531 38.3392L252.519 38.3624L255.202 39.704ZM259.939 33.432L262.101 35.5113L262.121 35.491L262.14 35.4702L259.939 33.432ZM267.619 27.672L268.991 30.3399L269.005 30.3326L269.019 30.3252L267.619 27.672ZM291.811 29.208L289.884 31.5076L289.899 31.5202L289.914 31.5326L291.811 29.208ZM298.467 39.832L295.57 40.6119L295.572 40.619L295.574 40.6261L298.467 39.832ZM298.083 92.824L300.204 94.9453L300.234 94.915L300.264 94.8839L298.083 92.824ZM287.075 92.824L284.893 94.8839L284.923 94.915L284.953 94.9453L287.075 92.824ZM283.875 46.872L280.998 47.7243L281.003 47.7393L281.007 47.7543L283.875 46.872ZM280.163 41.368L281.981 38.9817L281.981 38.9817L280.163 41.368ZM258.915 46.872L256.251 45.491L256.241 45.5106L256.231 45.5304L258.915 46.872ZM255.075 92.824L257.196 94.9453L257.226 94.915L257.256 94.8839L255.075 92.824ZM244.067 92.824L241.885 94.8839L241.915 94.915L241.945 94.9453L244.067 92.824ZM240.867 46.872L237.99 47.7243L237.995 47.7393L237.999 47.7543L240.867 46.872ZM221.155 41.368L222.684 43.9489L221.155 41.368ZM215.907 46.872L213.243 45.491L213.233 45.5106L213.223 45.5304L215.907 46.872ZM212.067 92.824L214.188 94.9453L214.218 94.915L214.248 94.8839L212.067 92.824ZM201.059 92.824L198.877 94.8839L198.907 94.915L198.937 94.9453L201.059 92.824ZM201.059 28.824L203.18 30.9453L203.21 30.915L203.24 30.8839L201.059 28.824ZM212.067 28.824L209.885 30.8839L209.915 30.915L209.945 30.9453L212.067 28.824ZM214.243 39.832L213.654 42.7737L217.243 43.4914V39.832H214.243ZM212.323 39.448L209.671 38.0443L207.788 41.6006L211.734 42.3897L212.323 39.448ZM215.523 34.84L217.817 36.7724L217.842 36.7435L217.865 36.7141L215.523 34.84ZM220.515 30.104L222.298 32.5165L222.298 32.5165L220.515 30.104ZM227.043 26.648L228.052 29.4732L228.096 29.4574L228.139 29.4403L227.043 26.648ZM234.851 28.24C241.248 28.24 245.347 29.802 247.806 32.3256L252.103 28.1384C248.077 24.006 242.107 22.24 234.851 22.24V28.24ZM247.833 32.3533C250.592 35.1118 252.483 38.7679 253.411 43.4831L259.298 42.3249C258.178 36.6294 255.803 31.8375 252.076 28.1107L247.833 32.3533ZM257.758 40.2526L255.582 39.1006L252.775 44.4034L254.951 45.5554L257.758 40.2526ZM256.862 43.0936L257.886 41.0456L252.519 38.3624L251.495 40.4104L256.862 43.0936ZM257.862 41.0917C258.714 39.4591 260.095 37.5981 262.101 35.5113L257.776 31.3527C255.516 33.7033 253.739 36.0236 252.543 38.3163L257.862 41.0917ZM262.14 35.4702C264.019 33.4402 266.293 31.7271 268.991 30.3399L266.246 25.0041C262.971 26.6889 260.124 28.8158 257.737 31.3938L262.14 35.4702ZM269.019 30.3252C271.625 28.9498 274.551 28.24 277.859 28.24V22.24C273.656 22.24 269.756 23.1516 266.218 25.0188L269.019 30.3252ZM277.859 28.24C283.632 28.24 287.477 29.491 289.884 31.5076L293.737 26.9084C289.829 23.6343 284.373 22.24 277.859 22.24V28.24ZM289.914 31.5326C292.622 33.7415 294.522 36.719 295.57 40.6119L301.363 39.0521C300.022 34.0703 297.485 29.9652 293.707 26.8834L289.914 31.5326ZM295.574 40.6261C296.685 44.6756 297.259 49.2668 297.259 54.424H303.259C303.259 48.8292 302.637 43.6924 301.359 39.0378L295.574 40.6261ZM297.259 54.424V87.192H303.259V54.424H297.259ZM297.259 87.192C297.259 88.687 296.798 89.8151 295.901 90.7641L300.264 94.8839C302.269 92.7609 303.259 90.1343 303.259 87.192H297.259ZM295.961 90.7027C295.122 91.5421 294.073 92 292.579 92V98C295.521 98 298.142 97.0072 300.204 94.9453L295.961 90.7027ZM292.579 92C291.084 92 290.035 91.5421 289.196 90.7027L284.953 94.9453C287.015 97.0072 289.636 98 292.579 98V92ZM289.256 90.7641C288.359 89.8151 287.899 88.687 287.899 87.192H281.899C281.899 90.1343 282.888 92.7609 284.893 94.8839L289.256 90.7641ZM287.899 87.192V54.424H281.899V87.192H287.899ZM287.899 54.424C287.899 51.3703 287.529 48.5475 286.742 45.9897L281.007 47.7543C281.585 49.6338 281.899 51.8457 281.899 54.424H287.899ZM286.751 46.0197C285.9 43.1482 284.314 40.7595 281.981 38.9817L278.344 43.7543C279.595 44.7072 280.484 45.9878 280.998 47.7243L286.751 46.0197ZM281.981 38.9817C279.469 37.0682 276.167 36.32 272.483 36.32V42.32C275.454 42.32 277.272 42.9371 278.344 43.7543L281.981 38.9817ZM272.483 36.32C268.815 36.32 265.489 37.0948 262.633 38.7871L265.692 43.9489C267.444 42.9105 269.665 42.32 272.483 42.32V36.32ZM262.633 38.7871C259.863 40.4289 257.713 42.6724 256.251 45.491L261.578 48.2529C262.506 46.4636 263.854 45.0378 265.692 43.9489L262.633 38.7871ZM256.231 45.5304C254.887 48.2188 254.251 51.2057 254.251 54.424H260.251C260.251 52.0103 260.723 49.9625 261.598 48.2136L256.231 45.5304ZM254.251 54.424V87.192H260.251V54.424H254.251ZM254.251 87.192C254.251 88.687 253.79 89.8151 252.893 90.7641L257.256 94.8839C259.261 92.7609 260.251 90.1343 260.251 87.192H254.251ZM252.953 90.7027C252.114 91.5421 251.065 92 249.571 92V98C252.513 98 255.134 97.0072 257.196 94.9453L252.953 90.7027ZM249.571 92C248.076 92 247.027 91.5421 246.188 90.7027L241.945 94.9453C244.007 97.0072 246.628 98 249.571 98V92ZM246.248 90.7641C245.351 89.8151 244.891 88.687 244.891 87.192H238.891C238.891 90.1343 239.88 92.7609 241.885 94.8839L246.248 90.7641ZM244.891 87.192V54.424H238.891V87.192H244.891ZM244.891 54.424C244.891 51.3703 244.521 48.5475 243.734 45.9897L237.999 47.7543C238.577 49.6338 238.891 51.8457 238.891 54.424H244.891ZM243.743 46.0197C242.892 43.1482 241.306 40.7595 238.973 38.9817L235.336 43.7543C236.587 44.7072 237.476 45.9878 237.99 47.7243L243.743 46.0197ZM238.973 38.9817C236.461 37.0682 233.159 36.32 229.475 36.32V42.32C232.446 42.32 234.264 42.9371 235.336 43.7543L238.973 38.9817ZM229.475 36.32C225.807 36.32 222.481 37.0948 219.625 38.7871L222.684 43.9489C224.436 42.9105 226.657 42.32 229.475 42.32V36.32ZM219.625 38.7871C216.855 40.4289 214.705 42.6724 213.243 45.491L218.57 48.2529C219.498 46.4636 220.846 45.0378 222.684 43.9489L219.625 38.7871ZM213.223 45.5304C211.879 48.2188 211.243 51.2057 211.243 54.424H217.243C217.243 52.0103 217.715 49.9625 218.59 48.2136L213.223 45.5304ZM211.243 54.424V87.192H217.243V54.424H211.243ZM211.243 87.192C211.243 88.687 210.782 89.8151 209.885 90.7641L214.248 94.8839C216.253 92.7609 217.243 90.1343 217.243 87.192H211.243ZM209.945 90.7027C209.106 91.5421 208.057 92 206.562 92V98C209.505 98 212.126 97.0072 214.188 94.9453L209.945 90.7027ZM206.562 92C205.068 92 204.019 91.5421 203.18 90.7027L198.937 94.9453C200.999 97.0072 203.62 98 206.562 98V92ZM203.24 90.7641C202.343 89.8151 201.883 88.687 201.883 87.192H195.883C195.883 90.1343 196.872 92.7609 198.877 94.8839L203.24 90.7641ZM201.883 87.192V34.328H195.883V87.192H201.883ZM201.883 34.328C201.883 32.8334 202.34 31.7847 203.18 30.9453L198.937 26.7027C196.875 28.7646 195.883 31.3852 195.883 34.328H201.883ZM203.24 30.8839C204.092 29.9809 205.123 29.52 206.562 29.52V23.52C203.565 23.52 200.926 24.5951 198.877 26.7641L203.24 30.8839ZM206.562 29.52C208.002 29.52 209.033 29.9809 209.885 30.8839L214.248 26.7641C212.199 24.5951 209.56 23.52 206.562 23.52V29.52ZM209.945 30.9453C210.785 31.7847 211.243 32.8334 211.243 34.328H217.243C217.243 31.3852 216.25 28.7646 214.188 26.7027L209.945 30.9453ZM211.243 34.328V39.832H217.243V34.328H211.243ZM214.831 36.8903L212.911 36.5063L211.734 42.3897L213.654 42.7737L214.831 36.8903ZM214.974 40.8517C215.618 39.6347 216.552 38.2751 217.817 36.7724L213.228 32.9076C211.763 34.6475 210.563 36.36 209.671 38.0443L214.974 40.8517ZM217.865 36.7141C219.05 35.2324 220.52 33.8304 222.298 32.5165L218.731 27.6915C216.584 29.2789 214.725 31.0343 213.18 32.9659L217.865 36.7141ZM222.298 32.5165C224.015 31.2474 225.928 30.2316 228.052 29.4732L226.033 23.8228C223.378 24.7711 220.94 26.0592 218.731 27.6915L222.298 32.5165ZM228.139 29.4403C230.147 28.6516 232.373 28.24 234.851 28.24V22.24C231.696 22.24 228.717 22.7671 225.946 23.8557L228.139 29.4403ZM368.339 29.848L366.696 32.3581L366.722 32.3753L366.749 32.392L368.339 29.848ZM379.603 42.264L376.937 43.6399L376.945 43.6568L376.954 43.6735L379.603 42.264ZM379.603 79.256L376.945 77.864L376.941 77.872L376.937 77.8801L379.603 79.256ZM368.467 91.8L370.098 94.3175L370.109 94.3101L368.467 91.8ZM343.251 94.616L344.295 91.8037L344.295 91.8037L343.251 94.616ZM335.315 90.392L333.485 92.7699L333.507 92.7865L333.529 92.8027L335.315 90.392ZM330.067 85.272L327.57 86.9361L327.617 87.0054L327.667 87.072L330.067 85.272ZM328.275 80.792L327.114 78.0254L325.275 78.797V80.792H328.275ZM332.243 79.128H335.243V74.6168L331.082 76.3614L332.243 79.128ZM330.067 94.104L332.188 96.2253L332.218 96.195L332.248 96.1639L330.067 94.104ZM319.059 94.104L316.937 96.2253L316.937 96.2253L319.059 94.104ZM319.059 2.58399L321.18 4.70531L321.21 4.67501L321.24 4.64387L319.059 2.58399ZM330.067 2.58399L327.885 4.64387L327.915 4.67501L327.945 4.70531L330.067 2.58399ZM332.243 40.6L330.839 43.2514L335.243 45.5827V40.6H332.243ZM330.067 39.448H327.067V41.2542L328.663 42.0994L330.067 39.448ZM331.859 35.48L334.227 37.3218L334.251 37.291L334.274 37.2596L331.859 35.48ZM336.723 30.744L338.523 33.144L338.554 33.1205L338.585 33.0961L336.723 30.744ZM343.763 26.776L342.709 23.967L342.694 23.9726L342.68 23.9783L343.763 26.776ZM340.562 42.136L342.227 44.6321L342.227 44.6321L340.562 42.136ZM333.907 49.816L331.223 48.4744L331.216 48.4889L331.209 48.5036L333.907 49.816ZM333.907 71.704L331.183 72.9612L331.202 73.0037L331.223 73.0456L333.907 71.704ZM340.562 79.384L338.898 81.8801L338.898 81.8802L340.562 79.384ZM360.147 79.384L358.482 76.8878L358.465 76.8997L358.447 76.9119L360.147 79.384ZM366.675 71.704L363.978 70.3901L363.97 70.4049L363.963 70.4197L366.675 71.704ZM366.675 49.816L363.963 51.1003L363.984 51.1437L364.006 51.1864L366.675 49.816ZM360.147 42.136L358.447 44.6081L358.465 44.6203L358.482 44.6321L360.147 42.136ZM352.339 28.24C357.768 28.24 362.523 29.6268 366.696 32.3581L369.981 27.3379C364.768 23.9252 358.856 22.24 352.339 22.24V28.24ZM366.749 32.392C371.044 35.0767 374.439 38.8 376.937 43.6399L382.268 40.8881C379.305 35.1467 375.19 30.5927 369.928 27.304L366.749 32.392ZM376.954 43.6735C379.503 48.4628 380.826 54.1077 380.826 60.696H386.826C386.826 53.2897 385.334 46.6465 382.251 40.8544L376.954 43.6735ZM380.826 60.696C380.826 67.283 379.504 72.979 376.945 77.864L382.26 80.648C385.333 74.781 386.826 68.1036 386.826 60.696H380.826ZM376.937 77.8801C374.428 82.74 371.057 86.5189 366.824 89.2899L370.109 94.3101C375.263 90.9371 379.315 86.3533 382.268 80.6319L376.937 77.8801ZM366.835 89.2825C362.741 91.936 358.109 93.28 352.851 93.28V99.28C359.198 99.28 364.976 97.6373 370.098 94.3175L366.835 89.2825ZM352.851 93.28C349.768 93.28 346.924 92.7803 344.295 91.8037L342.206 97.4283C345.55 98.6704 349.106 99.28 352.851 99.28V93.28ZM344.295 91.8037C341.544 90.7819 339.154 89.5024 337.1 87.9813L333.529 92.8027C336.083 94.6949 338.984 96.2314 342.206 97.4283L344.295 91.8037ZM337.144 88.0141C335.078 86.4249 333.542 84.9055 332.467 83.472L327.667 87.072C329.151 89.0518 331.114 90.9458 333.485 92.7699L337.144 88.0141ZM332.563 83.6079C331.468 81.9653 331.275 81.0849 331.275 80.792H325.275C325.275 82.8884 326.276 84.9947 327.57 86.9361L332.563 83.6079ZM329.435 83.5586L333.403 81.8946L331.082 76.3614L327.114 78.0254L329.435 83.5586ZM329.243 79.128V88.472H335.243V79.128H329.243ZM329.243 88.472C329.243 89.967 328.782 91.0951 327.885 92.0441L332.248 96.1639C334.253 94.0409 335.243 91.4143 335.243 88.472H329.243ZM327.945 91.9827C327.106 92.8221 326.057 93.28 324.562 93.28V99.28C327.505 99.28 330.126 98.2872 332.188 96.2253L327.945 91.9827ZM324.562 93.28C323.068 93.28 322.019 92.8221 321.18 91.9827L316.937 96.2253C318.999 98.2872 321.62 99.28 324.562 99.28V93.28ZM321.18 91.9827C320.363 91.166 319.883 90.0873 319.883 88.472H313.883C313.883 91.4647 314.853 94.1407 316.937 96.2253L321.18 91.9827ZM319.883 88.472V8.088H313.883V88.472H319.883ZM319.883 8.088C319.883 6.59343 320.34 5.54472 321.18 4.70531L316.937 0.462673C314.875 2.5246 313.883 5.14523 313.883 8.088H319.883ZM321.24 4.64387C322.092 3.7409 323.123 3.28 324.562 3.28V-2.72C321.565 -2.72 318.926 -1.64491 316.877 0.524118L321.24 4.64387ZM324.562 3.28C326.002 3.28 327.033 3.7409 327.885 4.64387L332.248 0.524118C330.199 -1.64491 327.56 -2.72 324.562 -2.72V3.28ZM327.945 4.70531C328.785 5.54472 329.243 6.59343 329.243 8.088H335.243C335.243 5.14523 334.25 2.5246 332.188 0.462674L327.945 4.70531ZM329.243 8.088V40.6H335.243V8.088H329.243ZM333.646 37.9486L331.47 36.7966L328.663 42.0994L330.839 43.2514L333.646 37.9486ZM333.067 39.448C333.067 39.3473 333.165 38.6861 334.227 37.3218L329.49 33.6382C328.162 35.3459 327.067 37.33 327.067 39.448H333.067ZM334.274 37.2596C335.255 35.9277 336.649 34.5495 338.523 33.144L334.923 28.344C332.7 30.0105 330.851 31.7896 329.443 33.7004L334.274 37.2596ZM338.585 33.0961C340.377 31.6769 342.457 30.4984 344.845 29.5737L342.68 23.9783C339.778 25.1016 337.164 26.5684 334.86 28.3919L338.585 33.0961ZM344.816 29.585C347.202 28.6904 349.703 28.24 352.339 28.24V22.24C349.001 22.24 345.785 22.8136 342.709 23.967L344.816 29.585ZM350.419 36.32C346.139 36.32 342.26 37.3985 338.898 39.6398L342.227 44.6321C344.497 43.1188 347.189 42.32 350.419 42.32V36.32ZM338.898 39.6398C335.617 41.8274 333.061 44.7991 331.223 48.4744L336.59 51.1576C337.995 48.3476 339.876 46.1993 342.227 44.6321L338.898 39.6398ZM331.209 48.5036C329.443 52.1327 328.603 56.2208 328.603 60.696H334.603C334.603 56.9792 335.298 53.814 336.604 51.1284L331.209 48.5036ZM328.603 60.696C328.603 65.0994 329.448 69.2031 331.183 72.9612L336.63 70.4468C335.293 67.5489 334.603 64.3139 334.603 60.696H328.603ZM331.223 73.0456C333.061 76.7209 335.617 79.6926 338.898 81.8801L342.227 76.8878C339.876 75.3207 337.995 73.1724 336.59 70.3624L331.223 73.0456ZM338.898 81.8802C342.26 84.1215 346.139 85.2 350.419 85.2V79.2C347.189 79.2 344.497 78.4012 342.227 76.8878L338.898 81.8802ZM350.419 85.2C354.696 85.2 358.551 84.1218 361.846 81.8561L358.447 76.9119C356.281 78.4009 353.65 79.2 350.419 79.2V85.2ZM361.811 81.8801C365.107 79.6829 367.632 76.6915 369.386 72.9883L363.963 70.4197C362.645 73.2018 360.818 75.3305 358.482 76.8878L361.811 81.8801ZM369.371 73.0179C371.208 69.2472 372.107 65.1233 372.107 60.696H366.107C366.107 64.29 365.383 67.5048 363.978 70.3901L369.371 73.0179ZM372.107 60.696C372.107 56.197 371.214 52.0879 369.343 48.4456L364.006 51.1864C365.378 53.8587 366.107 57.003 366.107 60.696H372.107ZM369.386 48.5317C367.632 44.8285 365.107 41.8371 361.811 39.6398L358.482 44.6321C360.818 46.1895 362.645 48.3182 363.963 51.1003L369.386 48.5317ZM361.846 39.6639C358.551 37.3982 354.696 36.32 350.419 36.32V42.32C353.65 42.32 356.281 43.1191 358.447 44.6081L361.846 39.6639ZM458.954 79.384L456.367 77.8647L456.363 77.8712L456.359 77.8776L458.954 79.384ZM446.41 91.8L444.935 89.1875L444.926 89.1927L444.916 89.1979L446.41 91.8ZM411.21 91.8L409.716 94.4021L409.726 94.4073L409.735 94.4125L411.21 91.8ZM398.666 79.384L396.061 80.8724L396.075 80.897L396.089 80.9214L398.666 79.384ZM398.666 42.392L396.079 40.8727L396.075 40.8792L396.071 40.8856L398.666 42.392ZM411.21 29.848L412.703 32.4501L412.709 32.4463L412.716 32.4424L411.21 29.848ZM446.41 29.848L444.885 32.4316L444.91 32.4463L444.935 32.4605L446.41 29.848ZM458.954 42.392L456.349 43.8804L456.363 43.905L456.377 43.9294L458.954 42.392ZM445.642 49.56L442.987 50.9572L443.009 50.9994L443.032 51.0408L445.642 49.56ZM438.602 42.008L437.025 44.5604L437.041 44.5705L437.058 44.5805L438.602 42.008ZM419.018 42.008L417.474 39.4355L417.457 39.4455L417.441 39.4556L419.018 42.008ZM411.978 49.56L409.352 48.1089L409.345 48.1212L409.338 48.1334L411.978 49.56ZM411.978 72.088L409.323 73.4852L409.345 73.5274L409.368 73.5688L411.978 72.088ZM419.018 79.512L417.441 82.0644L417.457 82.0745L417.474 82.0845L419.018 79.512ZM438.602 79.512L437.058 76.9395L437.041 76.9495L437.025 76.9596L438.602 79.512ZM445.642 72.088L443.016 70.6369L443.009 70.6492L443.002 70.6614L445.642 72.088ZM460.69 60.824C460.69 67.354 459.222 73.0038 456.367 77.8647L461.54 80.9033C465 75.0122 466.69 68.2887 466.69 60.824H460.69ZM456.359 77.8776C453.553 82.7099 449.757 86.4653 444.935 89.1875L447.884 94.4125C453.643 91.1614 458.21 86.6394 461.548 80.8904L456.359 77.8776ZM444.916 89.1979C440.202 91.903 434.879 93.28 428.874 93.28V99.28C435.839 99.28 442.206 97.6704 447.903 94.4021L444.916 89.1979ZM428.874 93.28C422.869 93.28 417.495 91.903 412.684 89.1875L409.735 94.4125C415.506 97.6703 421.907 99.28 428.874 99.28V93.28ZM412.703 89.1979C407.956 86.4744 404.143 82.7076 401.242 77.8466L396.089 80.9214C399.503 86.6417 404.053 91.1523 409.716 94.4021L412.703 89.1979ZM401.27 77.8956C398.49 73.0294 397.058 67.3684 397.058 60.824H391.058C391.058 68.2742 392.697 74.9866 396.061 80.8724L401.27 77.8956ZM397.058 60.824C397.058 54.2785 398.49 48.669 401.26 43.8984L396.071 40.8856C392.697 46.6963 391.058 53.3748 391.058 60.824H397.058ZM401.252 43.9113C404.156 38.967 407.968 35.1668 412.703 32.4501L409.716 27.2459C404.041 30.5026 399.49 35.065 396.079 40.8727L401.252 43.9113ZM412.716 32.4424C417.521 29.6521 422.884 28.24 428.874 28.24V22.24C421.892 22.24 415.479 23.8998 409.703 27.2536L412.716 32.4424ZM428.874 28.24C434.863 28.24 440.175 29.6521 444.885 32.4316L447.934 27.2644C442.233 23.8999 435.855 22.24 428.874 22.24V28.24ZM444.935 32.4605C449.745 35.1759 453.54 38.9647 456.349 43.8804L461.558 40.9036C458.223 35.0673 453.655 30.4934 447.884 27.2355L444.935 32.4605ZM456.377 43.9294C459.221 48.6948 460.69 54.293 460.69 60.824H466.69C466.69 53.3603 465 46.6706 461.53 40.8546L456.377 43.9294ZM451.33 60.824C451.33 56.056 450.345 51.7699 448.251 48.0792L443.032 51.0408C444.522 53.6647 445.33 56.888 445.33 60.824H451.33ZM448.296 48.1628C446.348 44.4604 443.628 41.5251 440.145 39.4355L437.058 44.5805C439.549 46.0749 441.522 48.1742 442.987 50.9572L448.296 48.1628ZM440.178 39.4556C436.778 37.3558 432.985 36.32 428.874 36.32V42.32C431.93 42.32 434.622 43.0762 437.025 44.5604L440.178 39.4556ZM428.874 36.32C424.762 36.32 420.941 37.3554 417.474 39.4355L420.561 44.5805C423.067 43.0766 425.817 42.32 428.874 42.32V36.32ZM417.441 39.4556C414.064 41.5416 411.371 44.4552 409.352 48.1089L414.603 51.0111C416.168 48.1794 418.169 46.0584 420.594 44.5604L417.441 39.4556ZM409.338 48.1334C407.349 51.8129 406.418 56.079 406.418 60.824H412.418C412.418 56.865 413.192 53.6217 414.617 50.9865L409.338 48.1334ZM406.418 60.824C406.418 65.4973 407.355 69.7459 409.323 73.4852L414.632 70.6908C413.187 67.9447 412.418 64.684 412.418 60.824H406.418ZM409.368 73.5688C411.393 77.1352 414.083 79.9905 417.441 82.0644L420.594 76.9596C418.149 75.4495 416.146 73.3555 414.587 70.6072L409.368 73.5688ZM417.474 82.0845C420.941 84.1646 424.762 85.2 428.874 85.2V79.2C425.817 79.2 423.067 78.4434 420.561 76.9395L417.474 82.0845ZM428.874 85.2C432.985 85.2 436.778 84.1642 440.178 82.0644L437.025 76.9596C434.622 78.4438 431.93 79.2 428.874 79.2V85.2ZM440.145 82.0845C443.608 80.007 446.326 77.1301 448.281 73.5146L443.002 70.6614C441.543 73.3606 439.569 75.433 437.058 76.9395L440.145 82.0845ZM448.267 73.5391C450.34 69.7888 451.33 65.5205 451.33 60.824H445.33C445.33 64.6608 444.527 67.9019 443.016 70.6369L448.267 73.5391Z" fill="white" mask="url(#path-1-outside-1_615_12503)"/>
</svg>
